<?xml version="1.0" encoding="UTF-8" standalone="no"?>
<!-- Created with Inkscape (http://www.inkscape.org/) -->

<svg
   width="88.939018mm"
   height="82.627777mm"
   viewBox="0 0 88.939019 82.627777"
   version="1.1"
   id="svg1"
   inkscape:export-filename="detection_marker_bg.png"
   inkscape:export-xdpi="57.11779"
   inkscape:export-ydpi="57.11779"
   inkscape:version="1.4.2 (ebf0e94, 2025-05-08)"
   sodipodi:docname="detection_marker.svg"
   xmlns:inkscape="http://www.inkscape.org/namespaces/inkscape"
   xmlns:sodipodi="http://sodipodi.sourceforge.net/DTD/sodipodi-0.dtd"
   xmlns="http://www.w3.org/2000/svg"
   xmlns:svg="http://www.w3.org/2000/svg">
  <sodipodi:namedview
     id="namedview1"
     pagecolor="#606060"
     bordercolor="#000000"
     borderopacity="0.25"
     inkscape:showpageshadow="2"
     inkscape:pageopacity="0.0"
     inkscape:pagecheckerboard="0"
     inkscape:deskcolor="#d1d1d1"
     inkscape:document-units="mm"
     inkscape:zoom="0.49386369"
     inkscape:cx="-393.83337"
     inkscape:cy="-56.695806"
     inkscape:window-width="1920"
     inkscape:window-height="1002"
     inkscape:window-x="0"
     inkscape:window-y="0"
     inkscape:window-maximized="1"
     inkscape:current-layer="layer1" />
  <defs
     id="defs1">
    <filter
       inkscape:collect="always"
       style="color-interpolation-filters:sRGB"
       id="filter2"
       x="-0.31518863"
       y="-0.35642481"
       width="1.6303773"
       height="1.7128496">
      <feGaussianBlur
         inkscape:collect="always"
         stdDeviation="7.1641312"
         id="feGaussianBlur2" />
    </filter>
  </defs>
  <g
     inkscape:label="Layer 1"
     inkscape:groupmode="layer"
     id="layer1"
     transform="translate(-60.530577,-110.34187)">
    <path
       id="path3"
       style="fill:#ffffff;fill-opacity:1;stroke-width:3.01501;filter:url(#filter2);opacity:1"
       d="m 87.625695,127.53578 a 27.275509,27.275509 0 0 0 -9.901204,20.9641 27.275509,27.275509 0 0 0 27.275339,27.27585 27.275509,27.275509 0 0 0 27.27585,-27.27585 27.275509,27.275509 0 0 0 -9.9012,-20.96358 18.971512,18.971512 0 0 1 1.5968,7.57008 18.971512,18.971512 0 0 1 -18.97145,18.97145 18.971512,18.971512 0 0 1 -18.971453,-18.97145 18.971512,18.971512 0 0 1 1.597318,-7.5706 z" />
    <path
       id="path2"
       style="mix-blend-mode:normal;fill:#ffffff;fill-opacity:1;stroke-width:3.01501;filter:url(#filter2);opacity:1"
       d="m 87.625695,127.53578 a 27.275509,27.275509 0 0 0 -9.901204,20.9641 27.275509,27.275509 0 0 0 27.275339,27.27585 27.275509,27.275509 0 0 0 27.27585,-27.27585 27.275509,27.275509 0 0 0 -9.9012,-20.96358 18.971512,18.971512 0 0 1 1.5968,7.57008 18.971512,18.971512 0 0 1 -18.97145,18.97145 18.971512,18.971512 0 0 1 -18.971453,-18.97145 18.971512,18.971512 0 0 1 1.597318,-7.5706 z" />
    <path
       id="path1"
       style="fill:#ffffff;fill-opacity:1;stroke-width:3.01501;opacity:1"
       d="m 122.37448,127.53578 a 27.275509,27.275509 0 0 1 9.9012,20.9641 27.275509,27.275509 0 0 1 -27.27534,27.27585 27.275509,27.275509 0 0 1 -27.275849,-27.27585 27.275509,27.275509 0 0 1 9.9012,-20.96358 18.971512,18.971512 0 0 0 -1.5968,7.57008 18.971512,18.971512 0 0 0 18.971449,18.97145 18.971512,18.971512 0 0 0 18.97145,-18.97145 18.971512,18.971512 0 0 0 -1.59731,-7.5706 z" />
  </g>
</svg>
